<svg width="640" height="640" viewBox="0 0 640 640" fill="none" xmlns="http://www.w3.org/2000/svg" role="img" aria-labelledby="title desc">
  <title id="title">FlowSync Hero Illustration</title>
  <desc id="desc">A bright project management dashboard illustration using the FlowSync color palette.</desc>
  <rect width="640" height="640" rx="48" fill="#F1FAEE"/>
  <circle cx="150" cy="126" r="86" fill="#A8DADC" fill-opacity="0.42"/>
  <circle cx="494" cy="148" r="112" fill="#E63946" fill-opacity="0.14"/>
  <circle cx="482" cy="496" r="124" fill="#457B9D" fill-opacity="0.16"/>
  <rect x="84" y="92" width="472" height="456" rx="34" fill="#FFFFFF" stroke="#D7E8E1" stroke-width="2"/>
  <rect x="84" y="92" width="472" height="74" rx="34" fill="#EAF4F0"/>
  <rect x="84" y="92" width="472" height="36" rx="34" fill="#1D3557" fill-opacity="0.96"/>
  <rect x="118" y="114" width="102" height="10" rx="5" fill="#F1FAEE"/>
  <circle cx="510" cy="116" r="8" fill="#E63946"/>
  <circle cx="486" cy="116" r="8" fill="#A8DADC"/>
  <circle cx="462" cy="116" r="8" fill="#457B9D"/>

  <rect x="118" y="204" width="188" height="154" rx="22" fill="#F7FBF8" stroke="#D7E8E1" stroke-width="2"/>
  <rect x="140" y="226" width="86" height="12" rx="6" fill="#E63946"/>
  <rect x="140" y="250" width="128" height="12" rx="6" fill="#457B9D" fill-opacity="0.85"/>
  <rect x="140" y="274" width="108" height="12" rx="6" fill="#A8DADC"/>
  <rect x="140" y="314" width="128" height="18" rx="9" fill="#E63946" fill-opacity="0.12"/>
  <rect x="140" y="314" width="82" height="18" rx="9" fill="#E63946"/>

  <rect x="332" y="204" width="192" height="154" rx="22" fill="#F7FBF8" stroke="#D7E8E1" stroke-width="2"/>
  <rect x="354" y="226" width="136" height="12" rx="6" fill="#1D3557"/>
  <rect x="354" y="254" width="150" height="18" rx="9" fill="#457B9D" fill-opacity="0.16"/>
  <rect x="354" y="284" width="122" height="18" rx="9" fill="#A8DADC" fill-opacity="0.68"/>
  <rect x="354" y="314" width="92" height="18" rx="9" fill="#E63946" fill-opacity="0.14"/>

  <rect x="118" y="386" width="238" height="118" rx="22" fill="#F7FBF8" stroke="#D7E8E1" stroke-width="2"/>
  <rect x="140" y="408" width="90" height="12" rx="6" fill="#1D3557"/>
  <rect x="140" y="438" width="176" height="14" rx="7" fill="#A8DADC"/>
  <rect x="140" y="462" width="140" height="14" rx="7" fill="#457B9D" fill-opacity="0.82"/>
  <circle cx="314" cy="448" r="24" fill="#E63946" fill-opacity="0.14"/>
  <circle cx="314" cy="448" r="14" fill="#E63946"/>

  <rect x="372" y="386" width="152" height="118" rx="22" fill="#F7FBF8" stroke="#D7E8E1" stroke-width="2"/>
  <rect x="392" y="408" width="54" height="12" rx="6" fill="#457B9D"/>
  <path d="M394 468C410 442 430 432 448 446C467 460 485 456 506 430" stroke="#1D3557" stroke-width="10" stroke-linecap="round"/>
  <circle cx="394" cy="468" r="6" fill="#1D3557"/>
  <circle cx="448" cy="446" r="6" fill="#457B9D"/>
  <circle cx="506" cy="430" r="6" fill="#E63946"/>

  <rect x="114" y="532" width="412" height="22" rx="11" fill="#D8EDE8"/>
  <rect x="114" y="532" width="286" height="22" rx="11" fill="#457B9D"/>
  <rect x="114" y="532" width="170" height="22" rx="11" fill="#E63946" fill-opacity="0.88"/>
</svg>
